<svg version="1.0" xmlns="http://www.w3.org/2000/svg" width="128" height="128" viewBox="0 0 128 128" opacity=".1">
  <path d="M51.5 12.4c-12.4 3.1-23.7 10.9-30.8 21.2-6 8.8-8.8 16.8-9.4 26.9C10.3 76 15.6 89.7 27 101c11.2 11.2 25.4 16.8 40.1 15.7 23.7-1.8 42.8-18.3 48.4-41.8 7.5-32.1-18.5-64.2-52-63.8-3.8 0-9.2.6-12 1.3zm21.8 9.1c16.8 3.5 31 18.4 33.6 35.2 1.1 7.3-.4 20.7-2.3 19.6-.6-.3-3.9-2.6-7.2-5C94 68.9 90.7 67 90 67c-.7 0-5.7 2.3-11.1 5.1-6.9 3.7-10.2 4.9-11.1 4.2-.7-.5-6.2-4.9-12.3-9.8-6-4.8-11.5-9.2-12.1-9.6-.7-.5-4.8 2.3-10.9 7.6-5.5 4.6-10.3 8.1-10.8 7.8-.5-.3-.7-4.8-.5-10.2.4-8.2.9-10.6 3.7-16.4 7-14.7 22.7-25.1 38.6-25.6 1.7 0 6.1.6 9.8 1.4zm-17.8 58C62.1 85.2 67.9 90 68.4 90s5.6-3 11.3-6.6l10.5-6.5 3.6 2.5c2.1 1.5 4.7 3.4 6 4.4l2.4 1.8-3.7 4.4c-5 6-9.9 9.8-17.5 13.4-6 2.9-7.3 3.1-17 3.1s-11-.2-17.2-3.2c-7.2-3.4-15.5-10.4-18.9-16-2.1-3.4-2.1-3.5-.3-5.2C34.7 75.4 42.1 69 42.7 69c.5 0 6.2 4.7 12.8 10.5z"/><path d="M66.4 40.4c-4.3 1.9-7.4 6.2-7.4 10.3 0 9.3 8.9 15 17 10.8 4.2-2.2 6-5.3 6-10.6 0-4-.5-5.3-3.1-7.8-1.7-1.7-3.6-3.1-4.2-3.1-.7 0-2.1-.2-3.2-.5s-3.4.1-5.1.9z"/></svg>