<svg version="1.0" xmlns="http://www.w3.org/2000/svg" width="16" height="16" viewBox="0 0 96 96">
  <path fill="#854cc7" d="M53.6 21.5L32.7 41.8l-12.5-9.5C9 23.6 7.5 22.8 5.1 23.6l-2.6.9-.3 23C2 68.2 2.1 70.6 3.7 71.7c.9.7 2.2 1.3 2.9 1.3.6 0 6.7-4.3 13.5-9.5l12.4-9.4 4 3.7c2.2 2 11.7 11.2 21.1 20.4l17 16.8 9.5-3.8 9.4-3.8.3-39.5.2-39.4-8.2-3.2c-4.6-1.8-9-3.4-9.8-3.7-1-.3-9 6.8-22.4 19.9zM72 48c0 9.3-.3 17-.7 17-.3 0-5.7-3.9-12-8.6L48 47.7l11.2-8.3c6.1-4.6 11.5-8.4 12-8.4.4 0 .8 7.6.8 17zm-54.7-4.1c2 1.9 3.7 3.8 3.7 4.2 0 .4-2.5 2.8-5.5 5.4L10 58.2V48c0-11.5-.4-11.3 7.3-4.1z"/>
</svg>